<svg width="1200" height="600" viewBox="0 0 1200 600" xmlns="http://www.w3.org/2000/svg">
  <defs>
    <marker id="arrowhead" markerWidth="10" markerHeight="7" refX="10" refY="3.5" orient="auto">
      <polygon points="0 0, 10 3.5, 0 7" fill="#0F172A" />
    </marker>
    <marker id="arrowhead-accent" markerWidth="10" markerHeight="7" refX="10" refY="3.5" orient="auto">
      <polygon points="0 0, 10 3.5, 0 7" fill="#3B82F6" />
    </marker>
  </defs>
  
  <rect x="0" y="0" width="1200" height="600" fill="#F8FAFC" />
  
  <rect x="400" y="60" width="220" height="80" rx="8" stroke-width="2" fill="#EEF2FF" stroke="#0F172A" />
  <text x="510" y="105" text-anchor="middle" font-family="Inter, system-ui, -apple-system, sans-serif" font-weight="600" font-size="22" fill="#0F172A">Charter</text>
  <text x="510" y="125" text-anchor="middle" font-family="Inter, system-ui, -apple-system, sans-serif" font-weight="400" font-size="14" fill="#0F172A">policy source</text>
  
  <line x1="510" y1="140" x2="510" y2="170" stroke="#0F172A" stroke-width="1.5" stroke-dasharray="4 4" stroke-linecap="round" />
  
  <rect x="420" y="170" width="180" height="260" rx="16" fill="#3B82F6" stroke="#3B82F6" stroke-width="2" />
  <text x="510" y="295" text-anchor="middle" font-family="Inter, system-ui, -apple-system, sans-serif" font-weight="700" font-size="32" fill="#F8FAFC">Writ</text>
  <text x="510" y="325" text-anchor="middle" font-family="Inter, system-ui, -apple-system, sans-serif" font-weight="400" font-style="italic" font-size="11" fill="#F8FAFC">enforcement boundary</text>

  <rect x="40" y="260" width="180" height="80" rx="8" stroke-width="2" fill="#F8FAFC" stroke="#0F172A" />
  <text x="130" y="305" text-anchor="middle" font-family="Inter, system-ui, -apple-system, sans-serif" font-weight="600" font-size="20" fill="#0F172A">Agent tool call</text>
  
  <line x1="220" y1="300" x2="420" y2="300" stroke="#0F172A" stroke-width="1.5" stroke-linecap="round" marker-end="url(#arrowhead)" />

  <line x1="600" y1="240" x2="680" y2="240" stroke="#3B82F6" stroke-width="1.5" stroke-linecap="round" marker-end="url(#arrowhead-accent)" />
  <text x="640" y="232" text-anchor="middle" font-family="Inter, system-ui, -apple-system, sans-serif" font-weight="600" font-size="14" fill="#0F172A">Allow</text>
  
  <rect x="680" y="200" width="150" height="80" rx="8" stroke-width="2" fill="#F8FAFC" stroke="#0F172A" />
  <text x="755" y="245" text-anchor="middle" font-family="Inter, system-ui, -apple-system, sans-serif" font-weight="600" font-size="18" fill="#0F172A">Tool executes</text>
  
  <line x1="830" y1="240" x2="870" y2="240" stroke="#3B82F6" stroke-width="1.5" stroke-linecap="round" marker-end="url(#arrowhead-accent)" />
  
  <rect x="870" y="200" width="140" height="80" rx="8" stroke-width="2" fill="#F8FAFC" stroke="#0F172A" />
  <text x="940" y="238" text-anchor="middle" font-family="Inter, system-ui, -apple-system, sans-serif" font-weight="600" font-size="18" fill="#0F172A">Chronicle</text>
  <text x="940" y="260" text-anchor="middle" font-family="Inter, system-ui, -apple-system, sans-serif" font-weight="400" font-size="14" fill="#0F172A">logged</text>

  <line x1="600" y1="360" x2="680" y2="360" stroke="#0F172A" stroke-width="1.5" stroke-linecap="round" marker-end="url(#arrowhead)" />
  <text x="640" y="352" text-anchor="middle" font-family="Inter, system-ui, -apple-system, sans-serif" font-weight="600" font-size="14" fill="#0F172A">Deny</text>
  
  <rect x="680" y="320" width="150" height="80" rx="8" stroke-width="2" fill="#F8FAFC" stroke="#0F172A" />
  <text x="755" y="365" text-anchor="middle" font-family="Inter, system-ui, -apple-system, sans-serif" font-weight="600" font-size="18" fill="#0F172A">Blocked</text>
  
  <line x1="830" y1="360" x2="870" y2="360" stroke="#0F172A" stroke-width="1.5" stroke-linecap="round" marker-end="url(#arrowhead)" />
  
  <rect x="870" y="320" width="140" height="80" rx="8" stroke-width="2" fill="#F8FAFC" stroke="#0F172A" />
  <text x="940" y="358" text-anchor="middle" font-family="Inter, system-ui, -apple-system, sans-serif" font-weight="600" font-size="18" fill="#0F172A">Chronicle</text>
  <text x="940" y="380" text-anchor="middle" font-family="Inter, system-ui, -apple-system, sans-serif" font-weight="400" font-size="14" fill="#0F172A">logged</text>

  <rect x="1050" y="245" width="110" height="110" rx="8" stroke-width="2" fill="#F8FAFC" stroke="#0F172A" />
  <text x="1105" y="295" text-anchor="middle" font-family="Inter, system-ui, -apple-system, sans-serif" font-weight="600" font-size="18" fill="#0F172A">Seal</text>
  <text x="1105" y="318" text-anchor="middle" font-family="Inter, system-ui, -apple-system, sans-serif" font-weight="400" font-size="14" fill="#0F172A">attested</text>

  <path d="M 1010 240 L 1030 240 L 1030 280 L 1050 280" fill="none" stroke="#0F172A" stroke-width="1.5" stroke-linejoin="round" marker-end="url(#arrowhead)" />
  <path d="M 1010 360 L 1030 360 L 1030 320 L 1050 320" fill="none" stroke="#0F172A" stroke-width="1.5" stroke-linejoin="round" marker-end="url(#arrowhead)" />
</svg>
